<?xml version="1.0" ?>
<!-- Uploaded to: SVG Repo, www.svgrepo.com, Generator: SVG Repo Mixer Tools -->
<svg width="800px" height="800px" viewBox="0 0 64 64" id="svg5" version="1.1" xml:space="preserve" xmlns="http://www.w3.org/2000/svg" xmlns:svg="http://www.w3.org/2000/svg">
<defs id="defs2"/>
<g id="layer1" transform="translate(-288,-672)">
<path d="m 318.02734,674.24805 c -0.19832,0.0101 -0.39872,0.0399 -0.59765,0.0918 h -0.002 c -2.58582,0.67635 -4.57421,2.62552 -5.46093,5.08399 -1.52399,0.23955 -2.95805,0.84979 -3.99414,1.9707 v 0.002 c -1.11645,1.20807 -1.042,3.12178 0.16601,4.23829 h 0.002 c 0.0227,0.0209 0.0472,0.0385 0.0703,0.0586 -0.003,0.0698 -0.0117,0.13837 -0.0117,0.20898 v 0.004 c 10e-4,0.46061 0.23683,0.86859 0.37305,1.30469 -1.45848,0.69406 -2.5101,2.02854 -2.71875,3.61523 -0.75484,0.0189 -1.45516,0.21462 -2.08204,0.53516 -0.0214,-0.0228 -0.0421,-0.0461 -0.0645,-0.0684 -0.56224,-0.56237 -1.32587,-0.87879 -2.12109,-0.87891 -0.73605,1.2e-4 -1.41562,0.32817 -1.96289,0.81446 -0.83726,-0.0428 -1.67277,0.16574 -2.2793,0.77148 l -0.002,0.002 c -0.60183,0.60559 -0.80948,1.4376 -0.76758,2.27149 -0.56139,0.63202 -0.82358,1.44656 -0.77149,2.23828 -2.11883,0.44419 -3.80296,2.03103 -3.80273,4.13281 -2.5e-4,2.30711 2.02729,3.99788 4.43359,4.23242 0.81737,1.56039 2.53281,2.54131 4.44532,2.54297 0.002,1e-5 0.004,1e-5 0.006,0 0.40893,-0.002 0.80011,-0.11501 1.19531,-0.20508 0.80551,1.78451 1.95228,3.84391 3.21289,5.99805 1.96899,3.36464 4.15798,6.74006 5.74414,9.14258 -0.93942,3.14986 -1.93475,6.08373 -2.94141,8.2168 -0.31387,0.66353 0.17025,1.4279 0.9043,1.42773 h 18 c 0.6938,-3.2e-4 1.1765,-0.68975 0.93945,-1.3418 -1.46381,-4.01719 -2.40584,-10.32099 -2.99218,-16.41601 l 4.78711,-5.26563 c 0.14783,0.0145 0.29726,0.023 0.98836,0.0207 0.6911,-0.002 1.79264,-0.57903 2.71885,-1.40355 0.753,0.44369 1.56868,0.75186 2.4375,0.75586 0.002,10e-6 0.004,10e-6 0.006,0 2.34617,-0.002 4.23491,-1.73334 4.98046,-4.05664 0.55629,0.21584 1.07553,0.55989 1.67383,0.56055 h 0.002 c 3.04809,2.3e-4 5.38175,-2.8153 5.38281,-6.09375 7e-5,-1.52259 -0.57258,-2.93202 -1.48828,-4.0625 0.30363,-0.77435 0.57959,-1.57043 0.58203,-2.41797 v -0.002 c 2e-4,-3.27947 -2.33377,-6.0979 -5.38281,-6.09765 -0.003,6.3e-4 -0.007,6.5e-4 -0.01,0.002 -0.29364,0.003 -0.56785,0.12927 -0.85547,0.18555 -0.77396,-2.27 -2.64676,-3.94455 -4.94922,-3.94531 -1.63958,-1.3e-4 -3.03354,0.82835 -3.97851,2.10156 -0.28049,-0.15683 -0.57626,-0.29145 -0.88672,-0.39453 0.2501,-0.57295 0.40074,-1.18586 0.40234,-1.82032 v -0.002 c 0.001,-2.61921 -2.21525,-4.7242 -4.875,-4.72461 -0.85138,9.3e-4 -1.65024,0.28101 -2.38281,0.6875 -0.83238,-0.93546 -1.88205,-1.64861 -3.07227,-1.98242 -0.43135,-1.28006 -1.67899,-2.10672 -3,-2.03906 z m 0.11133,1.99218 c 0.46958,-0.0286 0.89285,0.27024 1.01758,0.74805 v 0.002 c 0.14286,0.54599 -0.16878,1.07816 -0.71484,1.22071 -1.76132,0.46025 -3.05322,1.99989 -3.0586,3.8125 -1.3e-4,0.0228 4.9e-4,0.0456 0.002,0.0684 0.003,0.0463 0.004,0.10981 0.0156,0.20898 0.0843,0.7717 -0.5934,1.30882 -1.32617,1.05078 -0.31753,-0.11188 -0.65497,-0.17198 -1.00195,-0.17187 -0.86938,1.3e-4 -1.64397,0.36914 -2.16211,0.92969 -0.38243,0.41376 -0.99784,0.43817 -1.41211,0.0566 -0.41378,-0.38243 -0.43817,-0.99784 -0.0566,-1.41211 0.80634,-0.87236 1.99005,-1.40788 3.3164,-1.4961 0.42486,-0.028 0.7854,-0.32192 0.89844,-0.73242 0.56954,-2.06547 2.18726,-3.70579 4.27734,-4.25195 h 0.002 c 0.0683,-0.0179 0.13604,-0.0291 0.20312,-0.0332 z m 2.83985,2.08008 c 0.88672,0.31062 1.65077,0.89701 2.14453,1.68555 0.32003,0.51121 1.01634,0.62497 1.48242,0.24219 0.51762,-0.42506 1.18494,-0.66483 1.87695,-0.66602 1.62095,2.5e-4 2.87565,1.23044 2.875,2.72461 -0.002,0.67523 -0.26709,1.32699 -0.75586,1.83203 -0.641,0.6691 -0.10606,1.7748 0.81641,1.6875 1.61548,0.005 2.86302,1.23216 2.86328,2.72266 -0.002,1.07673 -0.66661,2.05909 -1.73633,2.49609 -0.54474,0.22231 -0.78082,0.86452 -0.50976,1.38672 0.19508,0.37541 0.29671,0.78548 0.29687,1.20117 -2.6e-4,1.49269 -1.25441,2.71893 -2.87305,2.72071 -0.18833,-0.003 -0.37711,-0.0226 -0.56054,-0.0606 -0.70435,-0.14419 -1.32621,0.47972 -1.17969,1.18359 0.0357,0.17207 0.0527,0.34577 0.0527,0.52149 -2.4e-4,1.49352 -1.25278,2.7224 -2.87304,2.72265 -0.70272,-3.4e-4 -1.37927,-0.24593 -1.90039,-0.68164 -0.40408,-0.33826 -1.0013,-0.30512 -1.36524,0.0762 -0.53843,0.56336 -1.3098,0.89447 -2.12304,0.89649 -1.28931,-10e-4 -2.39694,-0.80912 -2.75391,-1.95117 -0.15709,-0.5019 -0.67607,-0.79639 -1.1875,-0.67383 -0.21753,0.0521 -0.44208,0.0791 -0.66602,0.082 -1.61815,-0.002 -2.87172,-1.22694 -2.87304,-2.71875 v -0.002 c 0.003,-0.22535 0.0346,-0.44808 0.0957,-0.66602 0.13698,-0.48891 -0.11412,-1.00288 -0.58398,-1.19531 -1.06719,-0.4375 -1.7294,-1.41772 -1.73243,-2.49219 v -0.002 c 0.004,-1.23245 0.87117,-2.32055 2.16602,-2.63281 0.65981,-0.16051 0.97125,-0.91786 0.61523,-1.4961 -0.16192,-0.26261 -0.26872,-0.54658 -0.33007,-0.83984 0.78098,-0.0215 1.5524,-0.34189 2.11914,-0.95508 0.15379,-0.16638 0.37631,-0.28901 0.69336,-0.28906 0.11207,-4e-5 0.23009,0.0206 0.33789,0.0586 2.04771,0.72109 4.21814,-1.00439 3.97851,-3.16211 v -0.002 c 5.4e-4,0.005 -0.003,-0.0324 -0.004,-0.0488 0.006,-0.87911 0.59877,-1.62954 1.56054,-1.88086 0.96218,-0.25118 1.69462,-0.95546 2.03321,-1.82422 z m 14.84179,6.10157 c 1.53993,4.9e-4 2.96648,1.2857 3.3086,3.26171 0.11082,0.64156 0.79536,1.00787 1.39062,0.74414 0.36288,-0.16019 0.73945,-0.24161 1.11914,-0.24609 1.79037,0.003 3.37905,1.74774 3.37891,4.0957 -0.003,0.76318 -0.18511,1.51149 -0.51563,2.15039 -0.20012,0.38769 -0.12581,0.86037 0.1836,1.16797 0.76385,0.76005 1.23834,1.92561 1.23828,3.16407 -0.002,2.34808 -1.59185,4.09389 -3.38281,4.09375 -0.60704,-6.7e-4 -1.20404,-0.19708 -1.74219,-0.5918 -0.61022,-0.44765 -1.47728,-0.0815 -1.58203,0.66797 -0.28498,2.05132 -1.74642,3.415 -3.33203,3.41797 -0.66456,-0.004 -1.31734,-0.24102 -1.88868,-0.71485 -0.42878,-0.35571 -1.06557,-0.29247 -1.41601,0.14063 -0.65463,0.80584 -1.51311,1.22229 -2.39453,1.22656 -1.68666,-0.008 -3.20919,-1.56016 -3.35743,-3.76562 -0.034,-0.50572 -0.44104,-0.90601 -0.94726,-0.93165 -0.24689,-0.0127 -0.48868,-0.0627 -0.72266,-0.13867 1.42805,-0.74919 2.42998,-2.18325 2.54883,-3.85742 2.54025,-0.13335 4.62456,-2.14222 4.625,-4.67383 -1.7e-4,-0.45422 -0.18854,-0.87436 -0.32031,-1.30664 1.31544,-0.8616 2.26731,-2.18343 2.26953,-3.77539 v -0.002 c -1.8e-4,-1.05109 -0.36262,-2.00549 -0.9668,-2.77539 0.63156,-0.8391 1.53766,-1.35164 2.50586,-1.35156 z m -34.23437,7.99218 c 0.26558,4e-5 0.51925,0.10515 0.70703,0.29297 0.39812,0.39821 0.3986,1.01318 0.002,1.41211 h -0.002 c -0.25634,0.25374 -0.62317,0.35087 -0.9707,0.25391 -0.39453,-0.11008 -0.81631,0.0315 -1.06446,0.35742 -0.024,0.0314 -0.0506,0.0615 -0.0781,0.0898 -0.0197,0.0185 -0.0413,0.0359 -0.0625,0.0527 -0.40953,0.32624 -0.49812,0.91312 -0.20313,1.3457 0.0559,0.0822 0.0859,0.17271 0.0859,0.28125 v 3 c 0,0.2943 -0.2057,0.5 -0.5,0.5 -0.2943,0 -0.5,-0.2057 -0.5,-0.5 v -1.4082 c 1.1e-4,-0.40607 -0.24531,-0.77189 -0.62109,-0.92578 -0.12274,-0.0501 -0.23426,-0.12317 -0.32813,-0.2168 -0.39813,-0.39821 -0.3986,-1.01318 -0.002,-1.41211 l 0.002,-0.002 c 0.0307,-0.0304 0.0633,-0.0598 0.0977,-0.0859 0.32588,-0.24815 0.4675,-0.66992 0.35742,-1.06445 -0.097,-0.34754 1.7e-4,-0.71436 0.25391,-0.97071 0.25614,-0.25479 0.62446,-0.3527 0.97265,-0.25586 0.39212,0.10962 0.81155,-0.0294 1.06055,-0.35156 0.0265,-0.0344 0.0552,-0.067 0.0859,-0.0977 v -0.002 c 0.18777,-0.18782 0.44144,-0.29293 0.70703,-0.29297 z m 4.38476,0.40821 h 0.002 c 0.0398,10e-6 0.0779,0.003 0.11718,0.004 0.37665,0.96643 1.10558,1.78038 2.01758,2.36719 -0.0237,0.18233 -0.0765,0.36082 -0.0781,0.54492 -2e-5,0.003 -2e-5,0.007 0,0.01 3.7e-4,2.20082 1.56651,4.03437 3.64453,4.56445 0.0888,0.28782 0.30262,0.52029 0.58203,0.63281 1.08548,0.41914 1.6662,1.2518 1.66602,2.08789 6e-5,1.19203 -1.22691,2.32539 -2.96094,2.32618 -0.34528,-0.002 -0.68663,-0.0533 -1.00782,-0.14844 -0.46101,-0.13666 -0.95411,0.0742 -1.17382,0.50195 -0.42275,0.82248 -1.49474,1.46187 -2.74024,1.46484 -1.25107,-0.002 -2.32762,-0.64606 -2.74804,-1.47265 -0.2273,-0.44761 -0.75122,-0.65734 -1.22461,-0.49024 -0.37092,0.13116 -0.77519,0.20307 -1.18555,0.20508 -1.41303,-10e-4 -2.56036,-0.80792 -2.86914,-1.76367 -0.14092,-0.43424 -0.55802,-0.71794 -1.01367,-0.68945 -0.004,2.6e-4 -0.0256,0.002 -0.0352,0.002 h -0.002 c -1.73404,-8e-4 -2.96107,-1.1322 -2.96094,-2.32422 -1.2e-4,-1.11102 1.0723,-2.15922 2.62109,-2.29883 0.006,0.006 0.0101,0.012 0.0156,0.0176 0.10401,0.10375 0.24578,0.15513 0.36328,0.24219 V 699.5 c 0,1.3677 1.1323,2.5 2.5,2.5 1.3677,0 2.5,-1.1323 2.5,-2.5 v -3 c 0,-0.0706 -0.0527,-0.1221 -0.0586,-0.19141 0.65377,-0.0788 1.28215,-0.29296 1.76367,-0.77148 l 0.002,-0.002 c 0.65615,-0.6563 0.94172,-1.55282 0.85742,-2.41797 0.41781,-0.18345 0.89581,-0.2937 1.40625,-0.29492 z m 14.42969,9.14453 c 0.55279,0.32612 1.14945,0.56582 1.77734,0.67773 -0.005,10e-4 -0.0109,0.007 -0.0156,0.006 0.0601,1.52143 0.13755,3.21213 0.26562,5.25586 0.052,0.8318 1.03885,1.23885 1.66211,0.68555 l 2.03321,-1.80664 c 0.42778,0.60007 0.9539,1.10395 1.55468,1.48046 l -4.52148,4.97461 c -0.18907,0.20792 -0.28194,0.48581 -0.25586,0.76563 0.53961,5.77003 1.4377,11.58641 2.82813,15.99414 h -15.3125 c 0.93497,-2.20386 1.84826,-4.64339 2.68359,-7.48633 0.0833,-0.28283 0.0376,-0.588 -0.125,-0.83398 -1.58256,-2.3895 -3.92584,-6.00897 -5.95508,-9.47657 -0.62973,-1.07607 -1.20035,-2.1139 -1.70117,-3.08203 -9.2e-4,-10e-4 -0.003,-0.003 -0.004,-0.004 0.23536,0.0357 0.47418,0.0601 0.72071,0.0605 h 0.002 c 0.39534,-4.9e-4 0.77696,-0.0498 1.14258,-0.13867 0.62388,1.04785 1.32457,2.06075 2.04297,2.99414 1.79761,2.33567 3.55069,4.14382 3.92578,4.52539 0.54842,0.55732 1.49553,0.29803 1.68359,-0.46093 1.22193,-4.91824 2.1913,-9.55624 2.88477,-13.09571 0.98768,-0.0518 1.89588,-0.45441 2.68359,-1.03515 z m 3.86328,1.88867 c 0.23846,0.0931 0.48447,0.17162 0.73828,0.22851 0.0513,0.28586 0.12293,0.56431 0.20703,0.83594 l -0.86523,0.76953 c -0.0306,-0.62814 -0.0531,-1.22025 -0.0801,-1.83398 z m -9.09765,1.47461 c -0.53304,2.5663 -1.1569,5.4322 -1.85547,8.36914 -0.73439,-0.7914 -1.36016,-1.4032 -2.50196,-2.88672 -0.63461,-0.82456 -1.26597,-1.72031 -1.83203,-2.62305 -0.0864,0.19169 0.82975,-0.79733 1,-0.97268 0.32431,0.0591 0.64487,0.14064 0.97656,0.14258 h 0.006 c 1.72691,9e-5 3.31297,-0.79054 4.20704,-2.0293 z" id="path54136" style="color:#000000;fill:#000000;fill-rule:evenodd;stroke-linecap:round;stroke-linejoin:round;stroke-miterlimit:4.1;-inkscape-stroke:none"/>
<path d="m 341.21875,694.02344 a 1,1 0 0 0 -1.19531,0.75781 c 0,0 -0.20148,0.86953 -0.72657,1.72266 -0.52508,0.85312 -1.22053,1.55477 -2.38671,1.55664 a 1,1 0 0 0 -0.99805,1.00195 1,1 0 0 0 1.00195,0.99805 c 2.01554,-0.003 3.36232,-1.33213 4.08594,-2.50782 0.72362,-1.17568 0.97656,-2.33398 0.97656,-2.33398 a 1,1 0 0 0 -0.75781,-1.19531 z" id="path57129" style="color:#000000;fill:#000000;fill-rule:evenodd;stroke-linecap:round;stroke-linejoin:round;stroke-miterlimit:4.1;-inkscape-stroke:none"/>
<path d="m 339.58594,720.96094 a 1,1 0 0 0 -0.70703,0.29297 1,1 0 0 0 0,1.41406 l 1.41406,1.41406 a 1,1 0 0 0 1.41406,0 1,1 0 0 0 0,-1.41406 l -1.41406,-1.41406 a 1,1 0 0 0 -0.70703,-0.29297 z" id="path66266" style="color:#000000;fill:#000000;fill-rule:evenodd;stroke-linecap:round;stroke-linejoin:round;stroke-miterlimit:4.1;-inkscape-stroke:none"/>
<path d="m 335.34375,716.71875 a 1,1 0 0 0 -0.70703,0.29297 1,1 0 0 0 0,1.41406 l 1.41406,1.41406 a 1,1 0 0 0 1.41406,0 1,1 0 0 0 0,-1.41406 l -1.41406,-1.41406 a 1,1 0 0 0 -0.70703,-0.29297 z" id="path66268" style="color:#000000;fill:#000000;fill-rule:evenodd;stroke-linecap:round;stroke-linejoin:round;stroke-miterlimit:4.1;-inkscape-stroke:none"/>
<path d="m 336.75781,720.96094 a 1,1 0 0 0 -0.70703,0.29297 l -1.41406,1.41406 a 1,1 0 0 0 0,1.41406 1,1 0 0 0 1.41406,0 l 1.41406,-1.41406 a 1,1 0 0 0 0,-1.41406 1,1 0 0 0 -0.70703,-0.29297 z" id="path66270" style="color:#000000;fill:#000000;fill-rule:evenodd;stroke-linecap:round;stroke-linejoin:round;stroke-miterlimit:4.1;-inkscape-stroke:none"/>
<path d="m 341,716.71875 a 1,1 0 0 0 -0.70703,0.29297 l -1.41406,1.41406 a 1,1 0 0 0 0,1.41406 1,1 0 0 0 1.41406,0 l 1.41406,-1.41406 a 1,1 0 0 0 0,-1.41406 A 1,1 0 0 0 341,716.71875 Z" id="path66272" style="color:#000000;fill:#000000;fill-rule:evenodd;stroke-linecap:round;stroke-linejoin:round;stroke-miterlimit:4.1;-inkscape-stroke:none"/>
<path d="m 343.10423,679.18108 v 0" id="path66280" style="color:#000000;fill:none;fill-rule:evenodd;stroke-width:2;stroke-linecap:round;stroke-linejoin:round;stroke-miterlimit:4.1;-inkscape-stroke:none"/>
<path d="m 343.10423,678.18108 a 1,1 0 0 0 -1,1 1,1 0 0 0 1,1 1,1 0 0 0 1,-1 1,1 0 0 0 -1,-1 z" id="path66282" style="color:#000000;fill:#000000;fill-rule:evenodd;stroke-linecap:round;stroke-linejoin:round;stroke-miterlimit:4.1;-inkscape-stroke:none"/>
<path d="m 301.74903,722.652 v 0" id="path66286" style="color:#000000;fill:none;fill-rule:evenodd;stroke-width:2;stroke-linecap:round;stroke-linejoin:round;stroke-miterlimit:4.1;-inkscape-stroke:none"/>
<path d="m 301.74903,721.652 a 1,1 0 0 0 -1,1 1,1 0 0 0 1,1 1,1 0 0 0 1,-1 1,1 0 0 0 -1,-1 z" id="path66288" style="color:#000000;fill:#000000;fill-rule:evenodd;stroke-linecap:round;stroke-linejoin:round;stroke-miterlimit:4.1;-inkscape-stroke:none"/>
<path d="m 296.42134,713.21177 v 0" id="path66292" style="color:#000000;fill:none;fill-rule:evenodd;stroke-width:2;stroke-linecap:round;stroke-linejoin:round;stroke-miterlimit:4.1;-inkscape-stroke:none"/>
<path d="m 296.42134,712.21177 a 1,1 0 0 0 -1,1 1,1 0 0 0 1,1 1,1 0 0 0 1,-1 1,1 0 0 0 -1,-1 z" id="path66294" style="color:#000000;fill:#000000;fill-rule:evenodd;stroke-linecap:round;stroke-linejoin:round;stroke-miterlimit:4.1;-inkscape-stroke:none"/>
<path d="m 346.39472,710.75473 v 0" id="path66298" style="color:#000000;fill:none;fill-rule:evenodd;stroke-width:2;stroke-linecap:round;stroke-linejoin:round;stroke-miterlimit:4.1"/>
<path d="m 346.39472,709.75473 a 1,1 0 0 0 -1,1 1,1 0 0 0 1,1 1,1 0 0 0 1,-1 1,1 0 0 0 -1,-1 z" id="path66300" style="color:#000000;fill:#000000;fill-rule:evenodd;stroke-linecap:round;stroke-linejoin:round;stroke-miterlimit:4.1"/>
<path d="m 336.17696,729.9103 v 0" id="path66304" style="color:#000000;fill:none;fill-rule:evenodd;stroke-width:2;stroke-linecap:round;stroke-linejoin:round;stroke-miterlimit:4.1"/>
<path d="m 336.17696,728.9103 a 1,1 0 0 0 -1,1 1,1 0 0 0 1,1 1,1 0 0 0 1,-1 1,1 0 0 0 -1,-1 z" id="path66306" style="color:#000000;fill:#000000;fill-rule:evenodd;stroke-linecap:round;stroke-linejoin:round;stroke-miterlimit:4.1"/>
<path d="m 296.99414,682.07227 a 1,1 0 0 0 -1,1 v 2 a 1,1 0 0 0 1,1 1,1 0 0 0 1,-1 v -2 a 1,1 0 0 0 -1,-1 z" id="path69410" style="color:#000000;fill:#000000;fill-rule:evenodd;stroke-linecap:round;stroke-linejoin:round;stroke-miterlimit:4.1;-inkscape-stroke:none"/>
<path d="m 296.99414,676.07227 a 1,1 0 0 0 -1,1 v 2 a 1,1 0 0 0 1,1 1,1 0 0 0 1,-1 v -2 a 1,1 0 0 0 -1,-1 z" id="path69412" style="color:#000000;fill:#000000;fill-rule:evenodd;stroke-linecap:round;stroke-linejoin:round;stroke-miterlimit:4.1;-inkscape-stroke:none"/>
<path d="m 292.99414,680.07227 a 1,1 0 0 0 -1,1 1,1 0 0 0 1,1 h 2 a 1,1 0 0 0 1,-1 1,1 0 0 0 -1,-1 z" id="path69414" style="color:#000000;fill:#000000;fill-rule:evenodd;stroke-linecap:round;stroke-linejoin:round;stroke-miterlimit:4.1;-inkscape-stroke:none"/>
<path d="m 298.99414,680.07227 a 1,1 0 0 0 -1,1 1,1 0 0 0 1,1 h 2 a 1,1 0 0 0 1,-1 1,1 0 0 0 -1,-1 z" id="path69416" style="color:#000000;fill:#000000;fill-rule:evenodd;stroke-linecap:round;stroke-linejoin:round;stroke-miterlimit:4.1;-inkscape-stroke:none"/>
</g>
</svg>